<svg width="1080" height="1920" viewBox="0 0 1080 1920" fill="none" xmlns="http://www.w3.org/2000/svg">
<g clip-path="url(#clip0_1434_2244)">
<rect width="1080" height="1920" fill="white"/>
<path d="M-91 -29C-91 -84.2285 -46.2285 -129 9 -129L657.5 -129C712.729 -129 757.5 -84.2285 757.5 -29L757.5 590C757.5 645.228 712.728 690 657.5 690L8.99998 690C-46.2285 690 -91 645.228 -91 590L-91 -29Z" fill="#08BC21" fill-opacity="0.2"/>
<rect x="757.135" y="-281" width="964.85" height="1387.45" rx="100" transform="rotate(12.3662 757.135 -281)" fill="#08BC21" fill-opacity="0.2"/>
<path d="M-385.189 1755.92C-415.432 1709.71 -402.487 1647.73 -356.275 1617.49L187.865 1261.38C233.482 1231.53 294.604 1243.71 325.285 1288.78L996.965 2275.31C1032.56 2327.59 1011.29 2399.36 952.969 2423.81L322.664 2688.06C278.187 2706.71 226.736 2690.96 200.326 2650.6L-385.189 1755.92Z" fill="#08BC21" fill-opacity="0.2"/>
<path d="M-233 1486C-233 1430.77 -188.228 1386 -133 1386H515.5C570.729 1386 615.5 1430.77 615.5 1486L615.5 2105C615.5 2160.23 570.728 2205 515.5 2205H-133C-188.228 2205 -233 2160.23 -233 2105L-233 1486Z" fill="#08BC21" fill-opacity="0.2"/>
</g>
<defs>
<clipPath id="clip0_1434_2244">
<rect width="1080" height="1920" fill="white"/>
</clipPath>
</defs>
</svg>
