<svg width="411" height="731" viewBox="0 0 411 731" fill="none" xmlns="http://www.w3.org/2000/svg">
<g clip-path="url(#clip0_2936_35159)">
<rect width="411" height="731" fill="white"/>
<rect x="-776.814" y="447.492" width="23.4572" height="1400.06" transform="rotate(-50 -776.814 447.492)" fill="url(#paint0_linear_2936_35159)" fill-opacity="0.15"/>
<rect x="123.559" y="-625.531" width="23.4572" height="1400.06" transform="rotate(-50 123.559 -625.531)" fill="url(#paint1_linear_2936_35159)" fill-opacity="0.15"/>
<rect x="-753.121" y="419.25" width="23.4572" height="1400.06" transform="rotate(-50 -753.121 419.25)" fill="url(#paint2_linear_2936_35159)" fill-opacity="0.15"/>
<rect x="147.252" y="-653.766" width="23.4572" height="1400.06" transform="rotate(-50 147.252 -653.766)" fill="url(#paint3_linear_2936_35159)" fill-opacity="0.15"/>
<rect x="-729.426" y="391.016" width="23.4572" height="1400.06" transform="rotate(-50 -729.426 391.016)" fill="url(#paint4_linear_2936_35159)" fill-opacity="0.15"/>
<rect x="170.945" y="-682.008" width="23.4572" height="1400.06" transform="rotate(-50 170.945 -682.008)" fill="url(#paint5_linear_2936_35159)" fill-opacity="0.15"/>
<rect x="-705.732" y="362.773" width="23.4572" height="1400.06" transform="rotate(-50 -705.732 362.773)" fill="url(#paint6_linear_2936_35159)" fill-opacity="0.15"/>
<rect x="194.641" y="-710.242" width="23.4572" height="1400.06" transform="rotate(-50 194.641 -710.242)" fill="url(#paint7_linear_2936_35159)" fill-opacity="0.15"/>
<rect x="-682.039" y="334.539" width="23.4572" height="1400.06" transform="rotate(-50 -682.039 334.539)" fill="url(#paint8_linear_2936_35159)" fill-opacity="0.15"/>
<rect x="218.334" y="-738.484" width="23.4572" height="1400.06" transform="rotate(-50 218.334 -738.484)" fill="url(#paint9_linear_2936_35159)" fill-opacity="0.15"/>
<rect x="-658.344" y="306.305" width="23.4572" height="1400.06" transform="rotate(-50 -658.344 306.305)" fill="url(#paint10_linear_2936_35159)" fill-opacity="0.15"/>
<rect x="242.027" y="-766.719" width="23.4572" height="1400.06" transform="rotate(-50 242.027 -766.719)" fill="url(#paint11_linear_2936_35159)" fill-opacity="0.15"/>
<rect x="-634.65" y="278.062" width="23.4572" height="1400.06" transform="rotate(-50 -634.65 278.062)" fill="url(#paint12_linear_2936_35159)" fill-opacity="0.15"/>
<rect x="265.721" y="-794.953" width="23.4572" height="1400.06" transform="rotate(-50 265.721 -794.953)" fill="url(#paint13_linear_2936_35159)" fill-opacity="0.15"/>
<rect x="-610.957" y="249.828" width="23.4572" height="1400.06" transform="rotate(-50 -610.957 249.828)" fill="url(#paint14_linear_2936_35159)" fill-opacity="0.15"/>
<rect x="289.416" y="-823.195" width="23.4572" height="1400.06" transform="rotate(-50 289.416 -823.195)" fill="url(#paint15_linear_2936_35159)" fill-opacity="0.15"/>
<rect x="-587.262" y="221.594" width="23.4572" height="1400.06" transform="rotate(-50 -587.262 221.594)" fill="url(#paint16_linear_2936_35159)" fill-opacity="0.15"/>
<rect x="313.109" y="-851.43" width="23.4572" height="1400.06" transform="rotate(-50 313.109 -851.43)" fill="url(#paint17_linear_2936_35159)" fill-opacity="0.15"/>
<rect x="-563.568" y="193.352" width="23.4572" height="1400.06" transform="rotate(-50 -563.568 193.352)" fill="url(#paint18_linear_2936_35159)" fill-opacity="0.15"/>
<rect x="336.803" y="-879.672" width="23.4572" height="1400.06" transform="rotate(-50 336.803 -879.672)" fill="url(#paint19_linear_2936_35159)" fill-opacity="0.15"/>
<rect x="-539.875" y="165.117" width="23.4572" height="1400.06" transform="rotate(-50 -539.875 165.117)" fill="url(#paint20_linear_2936_35159)" fill-opacity="0.15"/>
<rect x="-516.18" y="136.875" width="23.4572" height="1400.06" transform="rotate(-50 -516.18 136.875)" fill="url(#paint21_linear_2936_35159)" fill-opacity="0.15"/>
<rect x="-492.486" y="108.641" width="23.4572" height="1400.06" transform="rotate(-50 -492.486 108.641)" fill="url(#paint22_linear_2936_35159)" fill-opacity="0.15"/>
<rect x="-468.793" y="80.4062" width="23.4572" height="1400.06" transform="rotate(-50 -468.793 80.4062)" fill="url(#paint23_linear_2936_35159)" fill-opacity="0.15"/>
<rect x="-445.098" y="52.1641" width="23.4572" height="1400.06" transform="rotate(-50 -445.098 52.1641)" fill="url(#paint24_linear_2936_35159)" fill-opacity="0.15"/>
<rect x="-421.404" y="23.9297" width="23.4572" height="1400.06" transform="rotate(-50 -421.404 23.9297)" fill="url(#paint25_linear_2936_35159)" fill-opacity="0.15"/>
<rect x="-397.711" y="-4.3125" width="23.4572" height="1400.06" transform="rotate(-50 -397.711 -4.3125)" fill="url(#paint26_linear_2936_35159)" fill-opacity="0.15"/>
<rect x="-374.016" y="-32.5469" width="23.4572" height="1400.06" transform="rotate(-50 -374.016 -32.5469)" fill="url(#paint27_linear_2936_35159)" fill-opacity="0.15"/>
<rect x="-350.322" y="-60.7812" width="23.4572" height="1400.06" transform="rotate(-50 -350.322 -60.7812)" fill="url(#paint28_linear_2936_35159)" fill-opacity="0.15"/>
<rect x="-326.629" y="-89.0234" width="23.4572" height="1400.06" transform="rotate(-50 -326.629 -89.0234)" fill="url(#paint29_linear_2936_35159)" fill-opacity="0.15"/>
<rect x="-302.934" y="-117.258" width="23.4572" height="1400.06" transform="rotate(-50 -302.934 -117.258)" fill="url(#paint30_linear_2936_35159)" fill-opacity="0.15"/>
<rect x="-279.24" y="-145.492" width="23.4572" height="1400.06" transform="rotate(-50 -279.24 -145.492)" fill="url(#paint31_linear_2936_35159)" fill-opacity="0.15"/>
<rect x="-255.547" y="-173.734" width="23.4572" height="1400.06" transform="rotate(-50 -255.547 -173.734)" fill="url(#paint32_linear_2936_35159)" fill-opacity="0.15"/>
<rect x="-231.852" y="-201.969" width="23.4572" height="1400.06" transform="rotate(-50 -231.852 -201.969)" fill="url(#paint33_linear_2936_35159)" fill-opacity="0.15"/>
<rect x="-208.158" y="-230.211" width="23.4572" height="1400.06" transform="rotate(-50 -208.158 -230.211)" fill="url(#paint34_linear_2936_35159)" fill-opacity="0.15"/>
<rect x="-184.465" y="-258.445" width="23.4572" height="1400.06" transform="rotate(-50 -184.465 -258.445)" fill="url(#paint35_linear_2936_35159)" fill-opacity="0.15"/>
<rect x="-160.77" y="-286.68" width="23.4572" height="1400.06" transform="rotate(-50 -160.77 -286.68)" fill="url(#paint36_linear_2936_35159)" fill-opacity="0.15"/>
<rect x="-137.076" y="-314.922" width="23.4572" height="1400.06" transform="rotate(-50 -137.076 -314.922)" fill="url(#paint37_linear_2936_35159)" fill-opacity="0.15"/>
<rect x="-1013.75" y="729.867" width="23.4572" height="1400.06" transform="rotate(-50 -1013.75 729.867)" fill="url(#paint38_linear_2936_35159)" fill-opacity="0.15"/>
<rect x="-113.383" y="-343.156" width="23.4572" height="1400.06" transform="rotate(-50 -113.383 -343.156)" fill="url(#paint39_linear_2936_35159)" fill-opacity="0.15"/>
<rect x="-990.061" y="701.625" width="23.4572" height="1400.06" transform="rotate(-50 -990.061 701.625)" fill="url(#paint40_linear_2936_35159)" fill-opacity="0.15"/>
<rect x="-89.6875" y="-371.398" width="23.4572" height="1400.06" transform="rotate(-50 -89.6875 -371.398)" fill="url(#paint41_linear_2936_35159)" fill-opacity="0.15"/>
<rect x="-966.365" y="673.391" width="23.4572" height="1400.06" transform="rotate(-50 -966.365 673.391)" fill="url(#paint42_linear_2936_35159)" fill-opacity="0.15"/>
<rect x="-65.9941" y="-399.633" width="23.4572" height="1400.06" transform="rotate(-50 -65.9941 -399.633)" fill="url(#paint43_linear_2936_35159)" fill-opacity="0.15"/>
<rect x="-942.672" y="645.148" width="23.4572" height="1400.06" transform="rotate(-50 -942.672 645.148)" fill="url(#paint44_linear_2936_35159)" fill-opacity="0.15"/>
<rect x="-42.3008" y="-427.867" width="23.4572" height="1400.06" transform="rotate(-50 -42.3008 -427.867)" fill="url(#paint45_linear_2936_35159)" fill-opacity="0.15"/>
<rect x="-918.979" y="616.914" width="23.4572" height="1400.06" transform="rotate(-50 -918.979 616.914)" fill="url(#paint46_linear_2936_35159)" fill-opacity="0.15"/>
<rect x="-18.6055" y="-456.109" width="23.4572" height="1400.06" transform="rotate(-50 -18.6055 -456.109)" fill="url(#paint47_linear_2936_35159)" fill-opacity="0.15"/>
<rect x="-895.283" y="588.68" width="23.4572" height="1400.06" transform="rotate(-50 -895.283 588.68)" fill="url(#paint48_linear_2936_35159)" fill-opacity="0.15"/>
<rect x="5.08789" y="-484.344" width="23.4572" height="1400.06" transform="rotate(-50 5.08789 -484.344)" fill="url(#paint49_linear_2936_35159)" fill-opacity="0.15"/>
<rect x="-871.59" y="560.438" width="23.4572" height="1400.06" transform="rotate(-50 -871.59 560.438)" fill="url(#paint50_linear_2936_35159)" fill-opacity="0.15"/>
<rect x="28.7812" y="-512.586" width="23.4572" height="1400.06" transform="rotate(-50 28.7812 -512.586)" fill="url(#paint51_linear_2936_35159)" fill-opacity="0.15"/>
<rect x="-847.896" y="532.203" width="23.4572" height="1400.06" transform="rotate(-50 -847.896 532.203)" fill="url(#paint52_linear_2936_35159)" fill-opacity="0.15"/>
<rect x="52.4766" y="-540.82" width="23.4572" height="1400.06" transform="rotate(-50 52.4766 -540.82)" fill="url(#paint53_linear_2936_35159)" fill-opacity="0.15"/>
<rect x="-824.201" y="503.961" width="23.4572" height="1400.06" transform="rotate(-50 -824.201 503.961)" fill="url(#paint54_linear_2936_35159)" fill-opacity="0.15"/>
<rect x="76.1699" y="-569.055" width="23.4572" height="1400.06" transform="rotate(-50 76.1699 -569.055)" fill="url(#paint55_linear_2936_35159)" fill-opacity="0.15"/>
<rect x="-800.508" y="475.727" width="23.4572" height="1400.06" transform="rotate(-50 -800.508 475.727)" fill="url(#paint56_linear_2936_35159)" fill-opacity="0.15"/>
<rect x="99.8633" y="-597.297" width="23.4572" height="1400.06" transform="rotate(-50 99.8633 -597.297)" fill="url(#paint57_linear_2936_35159)" fill-opacity="0.15"/>
<path d="M200.744 263.592C190.494 264.582 180.327 268.768 172.366 275.244C170.015 277.142 166.302 280.895 164.446 283.226C159.723 289.145 155.846 297.147 154.237 304.324C153.227 308.82 153 311.027 153 316.182C153 321.338 153.227 323.545 154.237 328.041C155.867 335.363 159.847 343.488 164.735 349.49C166.632 351.841 170.386 355.553 172.716 357.409C178.635 362.153 186.658 366.01 193.814 367.618C199.63 368.918 197.65 368.856 229.452 368.918L254.015 368.987C256.474 368.994 258.47 367.003 258.47 364.545V364.545V364.545C258.47 362.094 256.487 360.104 254.036 360.095L246.797 360.07L235.124 360.008L237.475 358.255C246.941 351.16 254.077 340.312 256.903 328.722C258.078 323.875 258.367 321.442 258.346 316.182C258.346 313.563 258.243 310.738 258.099 309.686C257.233 303.561 255.645 298.302 253.025 292.981C250.262 287.35 247.189 283.081 242.755 278.709C238.403 274.399 234.423 271.573 228.875 268.851C223.678 266.294 218.852 264.788 213.098 263.901C210.499 263.509 203.446 263.344 200.744 263.592ZM208.767 272.584C212.376 273.429 215.779 276.131 217.408 279.472C218.522 281.741 218.955 283.783 218.81 286.072C218.501 290.918 215.903 294.919 211.633 297.106C209.695 298.095 207.983 298.487 205.673 298.487C198.579 298.487 192.99 293.208 192.536 286.072C192.391 283.783 192.825 281.741 193.938 279.472C195.547 276.172 198.95 273.429 202.476 272.584C204.126 272.192 207.096 272.192 208.767 272.584ZM179.563 293.909C184.101 295.064 187.73 298.57 189.092 303.086C189.38 303.994 189.463 304.984 189.463 306.799C189.463 308.923 189.38 309.48 188.906 310.779C188.184 312.862 187.235 314.388 185.771 315.873C181.151 320.534 174.016 321.153 168.715 317.358C166.096 315.461 164.157 312.532 163.498 309.397C161.518 299.931 170.221 291.516 179.563 293.909ZM238.135 293.909C243.971 295.394 248.137 300.694 248.158 306.634C248.179 314.141 241.579 320.349 234.155 319.812C226.173 319.235 220.563 312.016 222.048 304.221C223.43 296.837 230.896 292.053 238.135 293.909ZM208.004 312.511C208.457 312.8 209.055 313.398 209.344 313.852C209.819 314.533 209.901 314.842 209.901 316.182C209.901 317.523 209.819 317.832 209.344 318.513C209.055 318.967 208.457 319.565 208.004 319.854C207.323 320.328 207.014 320.41 205.673 320.41C204.333 320.41 204.023 320.328 203.343 319.854C202.085 319.008 201.466 317.936 201.383 316.471C201.26 314.574 202.126 313.068 203.858 312.181C204.91 311.645 206.993 311.81 208.004 312.511ZM191.649 328.557C194.784 329.609 197.939 332.331 199.342 335.198C200.435 337.466 200.806 339.281 200.662 341.818C200.435 346.128 198.434 349.655 194.825 352.047C189.112 355.883 181.316 354.584 177.13 349.098C171.417 341.632 175.129 330.825 184.266 328.351C186.266 327.794 189.669 327.897 191.649 328.557ZM226.998 328.351C236.155 330.681 239.95 341.591 234.216 349.098C231.577 352.542 227.039 354.584 222.811 354.233C217.429 353.78 213.056 350.335 211.221 345.118C210.602 343.365 210.458 340.127 210.912 338.209C212.128 333.115 216.542 328.907 221.553 328.082C222.976 327.835 225.513 327.959 226.998 328.351Z" fill="#08B420"/>
<path d="M155.094 394.15V410H150.86V394.15H155.094ZM150.597 390.02C150.597 389.404 150.812 388.896 151.241 388.496C151.671 388.096 152.247 387.896 152.97 387.896C153.683 387.896 154.254 388.096 154.684 388.496C155.123 388.896 155.343 389.404 155.343 390.02C155.343 390.635 155.123 391.143 154.684 391.543C154.254 391.943 153.683 392.144 152.97 392.144C152.247 392.144 151.671 391.943 151.241 391.543C150.812 391.143 150.597 390.635 150.597 390.02ZM167.193 400.64H161.715L161.686 397.622H166.285C167.096 397.622 167.76 397.52 168.277 397.314C168.795 397.1 169.181 396.792 169.435 396.392C169.698 395.981 169.83 395.483 169.83 394.897C169.83 394.233 169.703 393.696 169.449 393.286C169.205 392.876 168.819 392.578 168.292 392.393C167.774 392.207 167.105 392.114 166.285 392.114H163.238V410H158.844V388.672H166.285C167.525 388.672 168.634 388.789 169.61 389.023C170.597 389.258 171.432 389.614 172.115 390.093C172.799 390.571 173.321 391.177 173.683 391.909C174.044 392.632 174.225 393.491 174.225 394.487C174.225 395.366 174.024 396.177 173.624 396.919C173.233 397.661 172.613 398.267 171.764 398.735C170.924 399.204 169.825 399.463 168.468 399.512L167.193 400.64ZM167.003 410H160.514L162.228 406.572H167.003C167.774 406.572 168.404 406.45 168.893 406.206C169.381 405.952 169.742 405.61 169.977 405.181C170.211 404.751 170.328 404.258 170.328 403.701C170.328 403.076 170.221 402.534 170.006 402.075C169.801 401.616 169.469 401.265 169.01 401.021C168.551 400.767 167.945 400.64 167.193 400.64H162.96L162.989 397.622H168.263L169.273 398.809C170.572 398.789 171.617 399.019 172.408 399.497C173.209 399.966 173.79 400.576 174.151 401.328C174.522 402.08 174.708 402.886 174.708 403.745C174.708 405.112 174.41 406.265 173.814 407.202C173.219 408.13 172.345 408.828 171.192 409.297C170.05 409.766 168.653 410 167.003 410ZM177.066 402.236V401.929C177.066 400.767 177.232 399.697 177.564 398.721C177.896 397.734 178.38 396.88 179.015 396.157C179.649 395.435 180.431 394.873 181.358 394.473C182.286 394.062 183.351 393.857 184.552 393.857C185.753 393.857 186.822 394.062 187.76 394.473C188.697 394.873 189.483 395.435 190.118 396.157C190.763 396.88 191.251 397.734 191.583 398.721C191.915 399.697 192.081 400.767 192.081 401.929V402.236C192.081 403.389 191.915 404.458 191.583 405.444C191.251 406.421 190.763 407.275 190.118 408.008C189.483 408.73 188.702 409.292 187.774 409.692C186.847 410.093 185.782 410.293 184.581 410.293C183.38 410.293 182.311 410.093 181.373 409.692C180.445 409.292 179.659 408.73 179.015 408.008C178.38 407.275 177.896 406.421 177.564 405.444C177.232 404.458 177.066 403.389 177.066 402.236ZM181.285 401.929V402.236C181.285 402.9 181.344 403.521 181.461 404.097C181.578 404.673 181.764 405.181 182.018 405.62C182.281 406.05 182.623 406.387 183.043 406.631C183.463 406.875 183.976 406.997 184.581 406.997C185.167 406.997 185.67 406.875 186.09 406.631C186.51 406.387 186.847 406.05 187.101 405.62C187.354 405.181 187.54 404.673 187.657 404.097C187.784 403.521 187.848 402.9 187.848 402.236V401.929C187.848 401.284 187.784 400.679 187.657 400.112C187.54 399.536 187.35 399.028 187.086 398.589C186.832 398.14 186.495 397.788 186.075 397.534C185.655 397.28 185.147 397.153 184.552 397.153C183.956 397.153 183.448 397.28 183.028 397.534C182.618 397.788 182.281 398.14 182.018 398.589C181.764 399.028 181.578 399.536 181.461 400.112C181.344 400.679 181.285 401.284 181.285 401.929ZM198.893 397.432V410H194.659V394.15H198.629L198.893 397.432ZM198.307 401.519H197.135C197.135 400.415 197.267 399.399 197.53 398.472C197.804 397.534 198.199 396.724 198.717 396.04C199.244 395.347 199.894 394.81 200.665 394.429C201.437 394.048 202.33 393.857 203.346 393.857C204.049 393.857 204.693 393.965 205.279 394.18C205.865 394.385 206.368 394.712 206.788 395.161C207.218 395.601 207.55 396.177 207.784 396.89C208.019 397.593 208.136 398.438 208.136 399.424V410H203.917V399.893C203.917 399.17 203.819 398.613 203.624 398.223C203.429 397.832 203.15 397.559 202.789 397.402C202.438 397.246 202.013 397.168 201.515 397.168C200.968 397.168 200.489 397.28 200.079 397.505C199.679 397.729 199.347 398.042 199.083 398.442C198.819 398.833 198.624 399.292 198.497 399.819C198.37 400.347 198.307 400.913 198.307 401.519ZM207.74 401.035L206.231 401.226C206.231 400.19 206.358 399.229 206.612 398.34C206.876 397.451 207.262 396.67 207.77 395.996C208.287 395.322 208.927 394.8 209.688 394.429C210.45 394.048 211.329 393.857 212.325 393.857C213.087 393.857 213.78 393.97 214.405 394.194C215.03 394.409 215.562 394.756 216.002 395.234C216.451 395.703 216.793 396.318 217.027 397.08C217.271 397.842 217.394 398.774 217.394 399.878V410H213.16V399.878C213.16 399.146 213.062 398.589 212.867 398.208C212.682 397.817 212.408 397.549 212.047 397.402C211.695 397.246 211.275 397.168 210.787 397.168C210.279 397.168 209.835 397.271 209.454 397.476C209.073 397.671 208.756 397.944 208.502 398.296C208.248 398.647 208.058 399.058 207.931 399.526C207.804 399.985 207.74 400.488 207.74 401.035ZM224.879 397.432V410H220.646V394.15H224.615L224.879 397.432ZM224.293 401.519H223.121C223.121 400.415 223.253 399.399 223.517 398.472C223.79 397.534 224.186 396.724 224.703 396.04C225.23 395.347 225.88 394.81 226.651 394.429C227.423 394.048 228.316 393.857 229.332 393.857C230.035 393.857 230.68 393.965 231.266 394.18C231.852 394.385 232.354 394.712 232.774 395.161C233.204 395.601 233.536 396.177 233.771 396.89C234.005 397.593 234.122 398.438 234.122 399.424V410H229.903V399.893C229.903 399.17 229.806 398.613 229.61 398.223C229.415 397.832 229.137 397.559 228.775 397.402C228.424 397.246 227.999 397.168 227.501 397.168C226.954 397.168 226.476 397.28 226.065 397.505C225.665 397.729 225.333 398.042 225.069 398.442C224.806 398.833 224.61 399.292 224.483 399.819C224.356 400.347 224.293 400.913 224.293 401.519ZM233.727 401.035L232.218 401.226C232.218 400.19 232.345 399.229 232.599 398.34C232.862 397.451 233.248 396.67 233.756 395.996C234.273 395.322 234.913 394.8 235.675 394.429C236.437 394.048 237.315 393.857 238.312 393.857C239.073 393.857 239.767 393.97 240.392 394.194C241.017 394.409 241.549 394.756 241.988 395.234C242.438 395.703 242.779 396.318 243.014 397.08C243.258 397.842 243.38 398.774 243.38 399.878V410H239.146V399.878C239.146 399.146 239.049 398.589 238.854 398.208C238.668 397.817 238.395 397.549 238.033 397.402C237.682 397.246 237.262 397.168 236.773 397.168C236.266 397.168 235.821 397.271 235.44 397.476C235.06 397.671 234.742 397.944 234.488 398.296C234.234 398.647 234.044 399.058 233.917 399.526C233.79 399.985 233.727 400.488 233.727 401.035ZM255.201 406.426V399.365C255.201 398.857 255.118 398.423 254.952 398.062C254.786 397.69 254.527 397.402 254.176 397.197C253.834 396.992 253.39 396.89 252.843 396.89C252.374 396.89 251.969 396.973 251.627 397.139C251.285 397.295 251.021 397.524 250.836 397.827C250.65 398.12 250.558 398.467 250.558 398.867H246.339C246.339 398.193 246.495 397.554 246.808 396.948C247.12 396.343 247.574 395.811 248.17 395.352C248.766 394.883 249.474 394.517 250.294 394.253C251.124 393.989 252.052 393.857 253.077 393.857C254.308 393.857 255.401 394.062 256.358 394.473C257.315 394.883 258.067 395.498 258.614 396.318C259.171 397.139 259.449 398.164 259.449 399.395V406.177C259.449 407.046 259.503 407.759 259.61 408.315C259.718 408.862 259.874 409.341 260.079 409.751V410H255.816C255.611 409.57 255.455 409.033 255.348 408.389C255.25 407.734 255.201 407.08 255.201 406.426ZM255.758 400.347L255.787 402.734H253.429C252.872 402.734 252.389 402.798 251.979 402.925C251.568 403.052 251.231 403.232 250.968 403.467C250.704 403.691 250.509 403.955 250.382 404.258C250.265 404.561 250.206 404.893 250.206 405.254C250.206 405.615 250.289 405.942 250.455 406.235C250.621 406.519 250.86 406.743 251.173 406.909C251.485 407.065 251.852 407.144 252.271 407.144C252.906 407.144 253.458 407.017 253.927 406.763C254.396 406.509 254.757 406.196 255.011 405.825C255.274 405.454 255.411 405.103 255.421 404.771L256.534 406.558C256.378 406.958 256.163 407.373 255.89 407.803C255.626 408.232 255.289 408.638 254.879 409.019C254.469 409.39 253.976 409.697 253.399 409.941C252.823 410.176 252.14 410.293 251.349 410.293C250.343 410.293 249.43 410.093 248.609 409.692C247.799 409.282 247.154 408.721 246.676 408.008C246.207 407.285 245.973 406.465 245.973 405.547C245.973 404.717 246.129 403.979 246.441 403.335C246.754 402.69 247.213 402.148 247.818 401.709C248.434 401.26 249.2 400.923 250.118 400.698C251.036 400.464 252.101 400.347 253.312 400.347H255.758Z" fill="black"/>
<path d="M107.84 428.719V430.662H100.291V428.719H107.84ZM100.896 422.781V437H98.4453V422.781H100.896ZM109.725 422.781V437H107.283V422.781H109.725ZM118.855 434.812V422H121.219V437H119.08L118.855 434.812ZM111.98 431.834V431.629C111.98 430.828 112.075 430.099 112.264 429.441C112.452 428.777 112.726 428.208 113.084 427.732C113.442 427.251 113.878 426.883 114.393 426.629C114.907 426.368 115.486 426.238 116.131 426.238C116.769 426.238 117.329 426.362 117.811 426.609C118.292 426.857 118.702 427.212 119.041 427.674C119.38 428.13 119.65 428.676 119.852 429.314C120.053 429.946 120.197 430.649 120.281 431.424V432.078C120.197 432.833 120.053 433.523 119.852 434.148C119.65 434.773 119.38 435.314 119.041 435.77C118.702 436.225 118.289 436.577 117.801 436.824C117.319 437.072 116.756 437.195 116.111 437.195C115.473 437.195 114.897 437.062 114.383 436.795C113.875 436.528 113.442 436.154 113.084 435.672C112.726 435.19 112.452 434.624 112.264 433.973C112.075 433.315 111.98 432.602 111.98 431.834ZM114.334 431.629V431.834C114.334 432.316 114.376 432.765 114.461 433.182C114.552 433.598 114.692 433.966 114.881 434.285C115.07 434.598 115.314 434.845 115.613 435.027C115.919 435.203 116.284 435.291 116.707 435.291C117.241 435.291 117.68 435.174 118.025 434.939C118.37 434.705 118.641 434.389 118.836 433.992C119.038 433.589 119.174 433.139 119.246 432.645V430.877C119.207 430.493 119.126 430.135 119.002 429.803C118.885 429.471 118.725 429.181 118.523 428.934C118.322 428.68 118.071 428.484 117.771 428.348C117.479 428.204 117.13 428.133 116.727 428.133C116.297 428.133 115.932 428.224 115.633 428.406C115.333 428.589 115.086 428.839 114.891 429.158C114.702 429.477 114.562 429.848 114.471 430.271C114.38 430.695 114.334 431.147 114.334 431.629ZM134.275 422.781V437H131.844V422.781H134.275ZM138.738 422.781V424.734H127.42V422.781H138.738ZM145.643 434.402L149.383 422.781H152.088L146.99 437H145.164L145.643 434.402ZM142.186 422.781L145.896 434.402L146.404 437H144.568L139.49 422.781H142.186ZM160.633 434.734L160.623 436.414C160.623 437.078 160.457 437.762 160.125 438.465C159.793 439.168 159.354 439.747 158.807 440.203L157.547 439.471C157.729 439.178 157.895 438.882 158.045 438.582C158.195 438.283 158.315 437.964 158.406 437.625C158.497 437.286 158.543 436.912 158.543 436.502V434.734H160.633ZM169.109 422.781H171.297L175.408 433.748L179.51 422.781H181.697L176.268 437H174.529L169.109 422.781ZM168.113 422.781H170.193L170.555 432.273V437H168.113V422.781ZM180.613 422.781H182.703V437H180.252V432.273L180.613 422.781ZM184.93 431.834V431.609C184.93 430.848 185.04 430.141 185.262 429.49C185.483 428.833 185.802 428.263 186.219 427.781C186.642 427.293 187.156 426.915 187.762 426.648C188.374 426.375 189.064 426.238 189.832 426.238C190.607 426.238 191.297 426.375 191.902 426.648C192.514 426.915 193.032 427.293 193.455 427.781C193.878 428.263 194.201 428.833 194.422 429.49C194.643 430.141 194.754 430.848 194.754 431.609V431.834C194.754 432.596 194.643 433.302 194.422 433.953C194.201 434.604 193.878 435.174 193.455 435.662C193.032 436.144 192.518 436.521 191.912 436.795C191.307 437.062 190.62 437.195 189.852 437.195C189.077 437.195 188.383 437.062 187.771 436.795C187.166 436.521 186.652 436.144 186.229 435.662C185.805 435.174 185.483 434.604 185.262 433.953C185.04 433.302 184.93 432.596 184.93 431.834ZM187.283 431.609V431.834C187.283 432.309 187.332 432.758 187.43 433.182C187.527 433.605 187.68 433.976 187.889 434.295C188.097 434.614 188.364 434.865 188.689 435.047C189.015 435.229 189.402 435.32 189.852 435.32C190.288 435.32 190.665 435.229 190.984 435.047C191.31 434.865 191.577 434.614 191.785 434.295C191.993 433.976 192.146 433.605 192.244 433.182C192.348 432.758 192.4 432.309 192.4 431.834V431.609C192.4 431.141 192.348 430.698 192.244 430.281C192.146 429.858 191.99 429.484 191.775 429.158C191.567 428.833 191.3 428.579 190.975 428.396C190.656 428.208 190.275 428.113 189.832 428.113C189.389 428.113 189.005 428.208 188.68 428.396C188.361 428.579 188.097 428.833 187.889 429.158C187.68 429.484 187.527 429.858 187.43 430.281C187.332 430.698 187.283 431.141 187.283 431.609ZM200.008 435.135L202.596 426.434H205.037L201.365 437H199.842L200.008 435.135ZM198.025 426.434L200.662 435.174L200.789 437H199.266L195.574 426.434H198.025ZM209.012 426.434V437H206.648V426.434H209.012ZM206.492 423.66C206.492 423.302 206.609 423.006 206.844 422.771C207.085 422.531 207.417 422.41 207.84 422.41C208.257 422.41 208.585 422.531 208.826 422.771C209.067 423.006 209.188 423.302 209.188 423.66C209.188 424.012 209.067 424.305 208.826 424.539C208.585 424.773 208.257 424.891 207.84 424.891C207.417 424.891 207.085 424.773 206.844 424.539C206.609 424.305 206.492 424.012 206.492 423.66ZM216.248 437.195C215.467 437.195 214.76 437.068 214.129 436.814C213.504 436.554 212.97 436.193 212.527 435.73C212.091 435.268 211.756 434.725 211.521 434.1C211.287 433.475 211.17 432.801 211.17 432.078V431.688C211.17 430.861 211.29 430.112 211.531 429.441C211.772 428.771 212.107 428.198 212.537 427.723C212.967 427.241 213.475 426.873 214.061 426.619C214.646 426.365 215.281 426.238 215.965 426.238C216.72 426.238 217.381 426.365 217.947 426.619C218.514 426.873 218.982 427.231 219.354 427.693C219.731 428.149 220.011 428.693 220.193 429.324C220.382 429.956 220.477 430.652 220.477 431.414V432.42H212.312V430.73H218.152V430.545C218.139 430.122 218.055 429.725 217.898 429.354C217.749 428.982 217.518 428.683 217.205 428.455C216.893 428.227 216.476 428.113 215.955 428.113C215.564 428.113 215.216 428.198 214.91 428.367C214.611 428.53 214.36 428.768 214.158 429.08C213.956 429.393 213.8 429.77 213.689 430.213C213.585 430.649 213.533 431.141 213.533 431.688V432.078C213.533 432.54 213.595 432.97 213.719 433.367C213.849 433.758 214.038 434.1 214.285 434.393C214.533 434.686 214.832 434.917 215.184 435.086C215.535 435.249 215.936 435.33 216.385 435.33C216.951 435.33 217.456 435.216 217.898 434.988C218.341 434.76 218.725 434.438 219.051 434.021L220.291 435.223C220.063 435.555 219.767 435.874 219.402 436.18C219.038 436.479 218.592 436.723 218.064 436.912C217.544 437.101 216.938 437.195 216.248 437.195ZM228.24 434.139C228.24 433.904 228.182 433.693 228.064 433.504C227.947 433.309 227.723 433.133 227.391 432.977C227.065 432.82 226.583 432.677 225.945 432.547C225.385 432.423 224.871 432.277 224.402 432.107C223.94 431.932 223.543 431.72 223.211 431.473C222.879 431.225 222.622 430.932 222.439 430.594C222.257 430.255 222.166 429.865 222.166 429.422C222.166 428.992 222.26 428.585 222.449 428.201C222.638 427.817 222.908 427.479 223.26 427.186C223.611 426.893 224.038 426.661 224.539 426.492C225.047 426.323 225.613 426.238 226.238 426.238C227.124 426.238 227.882 426.388 228.514 426.688C229.152 426.98 229.64 427.381 229.979 427.889C230.317 428.39 230.486 428.956 230.486 429.588H228.133C228.133 429.308 228.061 429.048 227.918 428.807C227.781 428.559 227.573 428.361 227.293 428.211C227.013 428.055 226.661 427.977 226.238 427.977C225.835 427.977 225.499 428.042 225.232 428.172C224.972 428.296 224.777 428.458 224.646 428.66C224.523 428.862 224.461 429.083 224.461 429.324C224.461 429.5 224.493 429.66 224.559 429.803C224.63 429.939 224.747 430.066 224.91 430.184C225.073 430.294 225.294 430.398 225.574 430.496C225.861 430.594 226.219 430.688 226.648 430.779C227.456 430.949 228.149 431.167 228.729 431.434C229.314 431.694 229.764 432.033 230.076 432.449C230.389 432.859 230.545 433.38 230.545 434.012C230.545 434.48 230.444 434.91 230.242 435.301C230.047 435.685 229.76 436.02 229.383 436.307C229.005 436.587 228.553 436.805 228.025 436.961C227.505 437.117 226.919 437.195 226.268 437.195C225.311 437.195 224.5 437.026 223.836 436.688C223.172 436.342 222.667 435.903 222.322 435.369C221.984 434.829 221.814 434.269 221.814 433.689H224.09C224.116 434.126 224.236 434.474 224.451 434.734C224.673 434.988 224.946 435.174 225.271 435.291C225.604 435.402 225.945 435.457 226.297 435.457C226.72 435.457 227.075 435.402 227.361 435.291C227.648 435.174 227.866 435.018 228.016 434.822C228.165 434.62 228.24 434.393 228.24 434.139ZM243.357 424.676L239.109 437H236.541L241.893 422.781H243.533L243.357 424.676ZM246.912 437L242.654 424.676L242.469 422.781H244.119L249.49 437H246.912ZM246.707 431.727V433.67H238.973V431.727H246.707ZM253.035 428.465V441.062H250.682V426.434H252.85L253.035 428.465ZM259.92 431.619V431.824C259.92 432.592 259.829 433.305 259.646 433.963C259.471 434.614 259.207 435.184 258.855 435.672C258.51 436.154 258.084 436.528 257.576 436.795C257.068 437.062 256.482 437.195 255.818 437.195C255.161 437.195 254.585 437.075 254.09 436.834C253.602 436.587 253.188 436.238 252.85 435.789C252.511 435.34 252.238 434.812 252.029 434.207C251.827 433.595 251.684 432.924 251.6 432.195V431.404C251.684 430.63 251.827 429.926 252.029 429.295C252.238 428.663 252.511 428.12 252.85 427.664C253.188 427.208 253.602 426.857 254.09 426.609C254.578 426.362 255.148 426.238 255.799 426.238C256.463 426.238 257.052 426.368 257.566 426.629C258.081 426.883 258.514 427.247 258.865 427.723C259.217 428.191 259.48 428.758 259.656 429.422C259.832 430.079 259.92 430.812 259.92 431.619ZM257.566 431.824V431.619C257.566 431.131 257.521 430.678 257.43 430.262C257.339 429.839 257.195 429.467 257 429.148C256.805 428.829 256.554 428.582 256.248 428.406C255.949 428.224 255.587 428.133 255.164 428.133C254.747 428.133 254.389 428.204 254.09 428.348C253.79 428.484 253.54 428.676 253.338 428.924C253.136 429.171 252.98 429.461 252.869 429.793C252.758 430.118 252.68 430.473 252.635 430.857V432.752C252.713 433.221 252.846 433.65 253.035 434.041C253.224 434.432 253.491 434.744 253.836 434.979C254.188 435.206 254.637 435.32 255.184 435.32C255.607 435.32 255.968 435.229 256.268 435.047C256.567 434.865 256.811 434.614 257 434.295C257.195 433.969 257.339 433.595 257.43 433.172C257.521 432.749 257.566 432.299 257.566 431.824ZM264.285 428.465V441.062H261.932V426.434H264.1L264.285 428.465ZM271.17 431.619V431.824C271.17 432.592 271.079 433.305 270.896 433.963C270.721 434.614 270.457 435.184 270.105 435.672C269.76 436.154 269.334 436.528 268.826 436.795C268.318 437.062 267.732 437.195 267.068 437.195C266.411 437.195 265.835 437.075 265.34 436.834C264.852 436.587 264.438 436.238 264.1 435.789C263.761 435.34 263.488 434.812 263.279 434.207C263.077 433.595 262.934 432.924 262.85 432.195V431.404C262.934 430.63 263.077 429.926 263.279 429.295C263.488 428.663 263.761 428.12 264.1 427.664C264.438 427.208 264.852 426.857 265.34 426.609C265.828 426.362 266.398 426.238 267.049 426.238C267.713 426.238 268.302 426.368 268.816 426.629C269.331 426.883 269.764 427.247 270.115 427.723C270.467 428.191 270.73 428.758 270.906 429.422C271.082 430.079 271.17 430.812 271.17 431.619ZM268.816 431.824V431.619C268.816 431.131 268.771 430.678 268.68 430.262C268.589 429.839 268.445 429.467 268.25 429.148C268.055 428.829 267.804 428.582 267.498 428.406C267.199 428.224 266.837 428.133 266.414 428.133C265.997 428.133 265.639 428.204 265.34 428.348C265.04 428.484 264.79 428.676 264.588 428.924C264.386 429.171 264.23 429.461 264.119 429.793C264.008 430.118 263.93 430.473 263.885 430.857V432.752C263.963 433.221 264.096 433.65 264.285 434.041C264.474 434.432 264.741 434.744 265.086 434.979C265.438 435.206 265.887 435.32 266.434 435.32C266.857 435.32 267.218 435.229 267.518 435.047C267.817 434.865 268.061 434.614 268.25 434.295C268.445 433.969 268.589 433.595 268.68 433.172C268.771 432.749 268.816 432.299 268.816 431.824ZM281.004 422.781V437H278.553V422.781H281.004ZM286.15 428.689V437H283.797V426.434H286.014L286.15 428.689ZM285.73 431.326L284.969 431.316C284.975 430.568 285.079 429.881 285.281 429.256C285.49 428.631 285.776 428.094 286.141 427.645C286.512 427.195 286.954 426.85 287.469 426.609C287.983 426.362 288.556 426.238 289.188 426.238C289.695 426.238 290.154 426.31 290.564 426.453C290.981 426.59 291.336 426.814 291.629 427.127C291.928 427.439 292.156 427.846 292.312 428.348C292.469 428.842 292.547 429.451 292.547 430.174V437H290.184V430.164C290.184 429.656 290.109 429.256 289.959 428.963C289.816 428.663 289.604 428.452 289.324 428.328C289.051 428.198 288.709 428.133 288.299 428.133C287.895 428.133 287.534 428.217 287.215 428.387C286.896 428.556 286.626 428.787 286.404 429.08C286.189 429.373 286.023 429.712 285.906 430.096C285.789 430.48 285.73 430.89 285.73 431.326ZM298.133 437H295.779V425.418C295.779 424.63 295.926 423.969 296.219 423.436C296.518 422.895 296.945 422.488 297.498 422.215C298.051 421.935 298.706 421.795 299.461 421.795C299.695 421.795 299.926 421.811 300.154 421.844C300.382 421.87 300.604 421.912 300.818 421.971L300.76 423.787C300.63 423.755 300.486 423.732 300.33 423.719C300.18 423.706 300.018 423.699 299.842 423.699C299.484 423.699 299.174 423.768 298.914 423.904C298.66 424.035 298.465 424.227 298.328 424.48C298.198 424.734 298.133 425.047 298.133 425.418V437ZM300.311 426.434V428.152H294.158V426.434H300.311ZM301.57 431.834V431.609C301.57 430.848 301.681 430.141 301.902 429.49C302.124 428.833 302.443 428.263 302.859 427.781C303.283 427.293 303.797 426.915 304.402 426.648C305.014 426.375 305.704 426.238 306.473 426.238C307.247 426.238 307.938 426.375 308.543 426.648C309.155 426.915 309.673 427.293 310.096 427.781C310.519 428.263 310.841 428.833 311.062 429.49C311.284 430.141 311.395 430.848 311.395 431.609V431.834C311.395 432.596 311.284 433.302 311.062 433.953C310.841 434.604 310.519 435.174 310.096 435.662C309.673 436.144 309.158 436.521 308.553 436.795C307.947 437.062 307.26 437.195 306.492 437.195C305.717 437.195 305.024 437.062 304.412 436.795C303.807 436.521 303.292 436.144 302.869 435.662C302.446 435.174 302.124 434.604 301.902 433.953C301.681 433.302 301.57 432.596 301.57 431.834ZM303.924 431.609V431.834C303.924 432.309 303.973 432.758 304.07 433.182C304.168 433.605 304.321 433.976 304.529 434.295C304.738 434.614 305.005 434.865 305.33 435.047C305.656 435.229 306.043 435.32 306.492 435.32C306.928 435.32 307.306 435.229 307.625 435.047C307.951 434.865 308.217 434.614 308.426 434.295C308.634 433.976 308.787 433.605 308.885 433.182C308.989 432.758 309.041 432.309 309.041 431.834V431.609C309.041 431.141 308.989 430.698 308.885 430.281C308.787 429.858 308.631 429.484 308.416 429.158C308.208 428.833 307.941 428.579 307.615 428.396C307.296 428.208 306.915 428.113 306.473 428.113C306.03 428.113 305.646 428.208 305.32 428.396C305.001 428.579 304.738 428.833 304.529 429.158C304.321 429.484 304.168 429.858 304.07 430.281C303.973 430.698 303.924 431.141 303.924 431.609Z" fill="black"/>
</g>
<defs>
<linearGradient id="paint0_linear_2936_35159" x1="-765.086" y1="447.492" x2="-765.086" y2="1847.55" gradientUnits="userSpaceOnUse">
<stop stop-color="#93F9B9"/>
<stop offset="1" stop-color="#1D976C"/>
</linearGradient>
<linearGradient id="paint1_linear_2936_35159" x1="135.287" y1="-625.531" x2="135.287" y2="774.528" gradientUnits="userSpaceOnUse">
<stop stop-color="#93F9B9"/>
<stop offset="1" stop-color="#1D976C"/>
</linearGradient>
<linearGradient id="paint2_linear_2936_35159" x1="-741.392" y1="419.25" x2="-741.392" y2="1819.31" gradientUnits="userSpaceOnUse">
<stop stop-color="#93F9B9"/>
<stop offset="1" stop-color="#1D976C"/>
</linearGradient>
<linearGradient id="paint3_linear_2936_35159" x1="158.981" y1="-653.766" x2="158.981" y2="746.294" gradientUnits="userSpaceOnUse">
<stop stop-color="#93F9B9"/>
<stop offset="1" stop-color="#1D976C"/>
</linearGradient>
<linearGradient id="paint4_linear_2936_35159" x1="-717.697" y1="391.016" x2="-717.697" y2="1791.08" gradientUnits="userSpaceOnUse">
<stop stop-color="#93F9B9"/>
<stop offset="1" stop-color="#1D976C"/>
</linearGradient>
<linearGradient id="paint5_linear_2936_35159" x1="182.674" y1="-682.008" x2="182.674" y2="718.052" gradientUnits="userSpaceOnUse">
<stop stop-color="#93F9B9"/>
<stop offset="1" stop-color="#1D976C"/>
</linearGradient>
<linearGradient id="paint6_linear_2936_35159" x1="-694.004" y1="362.773" x2="-694.004" y2="1762.83" gradientUnits="userSpaceOnUse">
<stop stop-color="#93F9B9"/>
<stop offset="1" stop-color="#1D976C"/>
</linearGradient>
<linearGradient id="paint7_linear_2936_35159" x1="206.369" y1="-710.242" x2="206.369" y2="689.817" gradientUnits="userSpaceOnUse">
<stop stop-color="#93F9B9"/>
<stop offset="1" stop-color="#1D976C"/>
</linearGradient>
<linearGradient id="paint8_linear_2936_35159" x1="-670.31" y1="334.539" x2="-670.31" y2="1734.6" gradientUnits="userSpaceOnUse">
<stop stop-color="#93F9B9"/>
<stop offset="1" stop-color="#1D976C"/>
</linearGradient>
<linearGradient id="paint9_linear_2936_35159" x1="230.063" y1="-738.484" x2="230.063" y2="661.575" gradientUnits="userSpaceOnUse">
<stop stop-color="#93F9B9"/>
<stop offset="1" stop-color="#1D976C"/>
</linearGradient>
<linearGradient id="paint10_linear_2936_35159" x1="-646.615" y1="306.305" x2="-646.615" y2="1706.36" gradientUnits="userSpaceOnUse">
<stop stop-color="#93F9B9"/>
<stop offset="1" stop-color="#1D976C"/>
</linearGradient>
<linearGradient id="paint11_linear_2936_35159" x1="253.756" y1="-766.719" x2="253.756" y2="633.341" gradientUnits="userSpaceOnUse">
<stop stop-color="#93F9B9"/>
<stop offset="1" stop-color="#1D976C"/>
</linearGradient>
<linearGradient id="paint12_linear_2936_35159" x1="-622.922" y1="278.062" x2="-622.922" y2="1678.12" gradientUnits="userSpaceOnUse">
<stop stop-color="#93F9B9"/>
<stop offset="1" stop-color="#1D976C"/>
</linearGradient>
<linearGradient id="paint13_linear_2936_35159" x1="277.449" y1="-794.953" x2="277.449" y2="605.106" gradientUnits="userSpaceOnUse">
<stop stop-color="#93F9B9"/>
<stop offset="1" stop-color="#1D976C"/>
</linearGradient>
<linearGradient id="paint14_linear_2936_35159" x1="-599.228" y1="249.828" x2="-599.228" y2="1649.89" gradientUnits="userSpaceOnUse">
<stop stop-color="#93F9B9"/>
<stop offset="1" stop-color="#1D976C"/>
</linearGradient>
<linearGradient id="paint15_linear_2936_35159" x1="301.145" y1="-823.195" x2="301.145" y2="576.864" gradientUnits="userSpaceOnUse">
<stop stop-color="#93F9B9"/>
<stop offset="1" stop-color="#1D976C"/>
</linearGradient>
<linearGradient id="paint16_linear_2936_35159" x1="-575.533" y1="221.594" x2="-575.533" y2="1621.65" gradientUnits="userSpaceOnUse">
<stop stop-color="#93F9B9"/>
<stop offset="1" stop-color="#1D976C"/>
</linearGradient>
<linearGradient id="paint17_linear_2936_35159" x1="324.838" y1="-851.43" x2="324.838" y2="548.63" gradientUnits="userSpaceOnUse">
<stop stop-color="#93F9B9"/>
<stop offset="1" stop-color="#1D976C"/>
</linearGradient>
<linearGradient id="paint18_linear_2936_35159" x1="-551.84" y1="193.352" x2="-551.84" y2="1593.41" gradientUnits="userSpaceOnUse">
<stop stop-color="#93F9B9"/>
<stop offset="1" stop-color="#1D976C"/>
</linearGradient>
<linearGradient id="paint19_linear_2936_35159" x1="348.531" y1="-879.672" x2="348.531" y2="520.388" gradientUnits="userSpaceOnUse">
<stop stop-color="#93F9B9"/>
<stop offset="1" stop-color="#1D976C"/>
</linearGradient>
<linearGradient id="paint20_linear_2936_35159" x1="-528.146" y1="165.117" x2="-528.146" y2="1565.18" gradientUnits="userSpaceOnUse">
<stop stop-color="#93F9B9"/>
<stop offset="1" stop-color="#1D976C"/>
</linearGradient>
<linearGradient id="paint21_linear_2936_35159" x1="-504.451" y1="136.875" x2="-504.451" y2="1536.93" gradientUnits="userSpaceOnUse">
<stop stop-color="#93F9B9"/>
<stop offset="1" stop-color="#1D976C"/>
</linearGradient>
<linearGradient id="paint22_linear_2936_35159" x1="-480.758" y1="108.641" x2="-480.758" y2="1508.7" gradientUnits="userSpaceOnUse">
<stop stop-color="#93F9B9"/>
<stop offset="1" stop-color="#1D976C"/>
</linearGradient>
<linearGradient id="paint23_linear_2936_35159" x1="-457.064" y1="80.4062" x2="-457.064" y2="1480.47" gradientUnits="userSpaceOnUse">
<stop stop-color="#93F9B9"/>
<stop offset="1" stop-color="#1D976C"/>
</linearGradient>
<linearGradient id="paint24_linear_2936_35159" x1="-433.369" y1="52.1641" x2="-433.369" y2="1452.22" gradientUnits="userSpaceOnUse">
<stop stop-color="#93F9B9"/>
<stop offset="1" stop-color="#1D976C"/>
</linearGradient>
<linearGradient id="paint25_linear_2936_35159" x1="-409.676" y1="23.9297" x2="-409.676" y2="1423.99" gradientUnits="userSpaceOnUse">
<stop stop-color="#93F9B9"/>
<stop offset="1" stop-color="#1D976C"/>
</linearGradient>
<linearGradient id="paint26_linear_2936_35159" x1="-385.982" y1="-4.3125" x2="-385.982" y2="1395.75" gradientUnits="userSpaceOnUse">
<stop stop-color="#93F9B9"/>
<stop offset="1" stop-color="#1D976C"/>
</linearGradient>
<linearGradient id="paint27_linear_2936_35159" x1="-362.287" y1="-32.5469" x2="-362.287" y2="1367.51" gradientUnits="userSpaceOnUse">
<stop stop-color="#93F9B9"/>
<stop offset="1" stop-color="#1D976C"/>
</linearGradient>
<linearGradient id="paint28_linear_2936_35159" x1="-338.594" y1="-60.7813" x2="-338.594" y2="1339.28" gradientUnits="userSpaceOnUse">
<stop stop-color="#93F9B9"/>
<stop offset="1" stop-color="#1D976C"/>
</linearGradient>
<linearGradient id="paint29_linear_2936_35159" x1="-314.9" y1="-89.0234" x2="-314.9" y2="1311.04" gradientUnits="userSpaceOnUse">
<stop stop-color="#93F9B9"/>
<stop offset="1" stop-color="#1D976C"/>
</linearGradient>
<linearGradient id="paint30_linear_2936_35159" x1="-291.205" y1="-117.258" x2="-291.205" y2="1282.8" gradientUnits="userSpaceOnUse">
<stop stop-color="#93F9B9"/>
<stop offset="1" stop-color="#1D976C"/>
</linearGradient>
<linearGradient id="paint31_linear_2936_35159" x1="-267.512" y1="-145.492" x2="-267.512" y2="1254.57" gradientUnits="userSpaceOnUse">
<stop stop-color="#93F9B9"/>
<stop offset="1" stop-color="#1D976C"/>
</linearGradient>
<linearGradient id="paint32_linear_2936_35159" x1="-243.818" y1="-173.734" x2="-243.818" y2="1226.33" gradientUnits="userSpaceOnUse">
<stop stop-color="#93F9B9"/>
<stop offset="1" stop-color="#1D976C"/>
</linearGradient>
<linearGradient id="paint33_linear_2936_35159" x1="-220.123" y1="-201.969" x2="-220.123" y2="1198.09" gradientUnits="userSpaceOnUse">
<stop stop-color="#93F9B9"/>
<stop offset="1" stop-color="#1D976C"/>
</linearGradient>
<linearGradient id="paint34_linear_2936_35159" x1="-196.43" y1="-230.211" x2="-196.43" y2="1169.85" gradientUnits="userSpaceOnUse">
<stop stop-color="#93F9B9"/>
<stop offset="1" stop-color="#1D976C"/>
</linearGradient>
<linearGradient id="paint35_linear_2936_35159" x1="-172.736" y1="-258.445" x2="-172.736" y2="1141.61" gradientUnits="userSpaceOnUse">
<stop stop-color="#93F9B9"/>
<stop offset="1" stop-color="#1D976C"/>
</linearGradient>
<linearGradient id="paint36_linear_2936_35159" x1="-149.041" y1="-286.68" x2="-149.041" y2="1113.38" gradientUnits="userSpaceOnUse">
<stop stop-color="#93F9B9"/>
<stop offset="1" stop-color="#1D976C"/>
</linearGradient>
<linearGradient id="paint37_linear_2936_35159" x1="-125.348" y1="-314.922" x2="-125.348" y2="1085.14" gradientUnits="userSpaceOnUse">
<stop stop-color="#93F9B9"/>
<stop offset="1" stop-color="#1D976C"/>
</linearGradient>
<linearGradient id="paint38_linear_2936_35159" x1="-1002.03" y1="729.867" x2="-1002.03" y2="2129.93" gradientUnits="userSpaceOnUse">
<stop stop-color="#93F9B9"/>
<stop offset="1" stop-color="#1D976C"/>
</linearGradient>
<linearGradient id="paint39_linear_2936_35159" x1="-101.654" y1="-343.156" x2="-101.654" y2="1056.9" gradientUnits="userSpaceOnUse">
<stop stop-color="#93F9B9"/>
<stop offset="1" stop-color="#1D976C"/>
</linearGradient>
<linearGradient id="paint40_linear_2936_35159" x1="-978.332" y1="701.625" x2="-978.332" y2="2101.68" gradientUnits="userSpaceOnUse">
<stop stop-color="#93F9B9"/>
<stop offset="1" stop-color="#1D976C"/>
</linearGradient>
<linearGradient id="paint41_linear_2936_35159" x1="-77.9589" y1="-371.398" x2="-77.9589" y2="1028.66" gradientUnits="userSpaceOnUse">
<stop stop-color="#93F9B9"/>
<stop offset="1" stop-color="#1D976C"/>
</linearGradient>
<linearGradient id="paint42_linear_2936_35159" x1="-954.637" y1="673.391" x2="-954.637" y2="2073.45" gradientUnits="userSpaceOnUse">
<stop stop-color="#93F9B9"/>
<stop offset="1" stop-color="#1D976C"/>
</linearGradient>
<linearGradient id="paint43_linear_2936_35159" x1="-54.2655" y1="-399.633" x2="-54.2655" y2="1000.43" gradientUnits="userSpaceOnUse">
<stop stop-color="#93F9B9"/>
<stop offset="1" stop-color="#1D976C"/>
</linearGradient>
<linearGradient id="paint44_linear_2936_35159" x1="-930.943" y1="645.148" x2="-930.943" y2="2045.21" gradientUnits="userSpaceOnUse">
<stop stop-color="#93F9B9"/>
<stop offset="1" stop-color="#1D976C"/>
</linearGradient>
<linearGradient id="paint45_linear_2936_35159" x1="-30.5722" y1="-427.867" x2="-30.5722" y2="972.192" gradientUnits="userSpaceOnUse">
<stop stop-color="#93F9B9"/>
<stop offset="1" stop-color="#1D976C"/>
</linearGradient>
<linearGradient id="paint46_linear_2936_35159" x1="-907.25" y1="616.914" x2="-907.25" y2="2016.97" gradientUnits="userSpaceOnUse">
<stop stop-color="#93F9B9"/>
<stop offset="1" stop-color="#1D976C"/>
</linearGradient>
<linearGradient id="paint47_linear_2936_35159" x1="-6.87687" y1="-456.109" x2="-6.87687" y2="943.95" gradientUnits="userSpaceOnUse">
<stop stop-color="#93F9B9"/>
<stop offset="1" stop-color="#1D976C"/>
</linearGradient>
<linearGradient id="paint48_linear_2936_35159" x1="-883.555" y1="588.68" x2="-883.555" y2="1988.74" gradientUnits="userSpaceOnUse">
<stop stop-color="#93F9B9"/>
<stop offset="1" stop-color="#1D976C"/>
</linearGradient>
<linearGradient id="paint49_linear_2936_35159" x1="16.8165" y1="-484.344" x2="16.8165" y2="915.716" gradientUnits="userSpaceOnUse">
<stop stop-color="#93F9B9"/>
<stop offset="1" stop-color="#1D976C"/>
</linearGradient>
<linearGradient id="paint50_linear_2936_35159" x1="-859.861" y1="560.437" x2="-859.861" y2="1960.5" gradientUnits="userSpaceOnUse">
<stop stop-color="#93F9B9"/>
<stop offset="1" stop-color="#1D976C"/>
</linearGradient>
<linearGradient id="paint51_linear_2936_35159" x1="40.5098" y1="-512.586" x2="40.5098" y2="887.474" gradientUnits="userSpaceOnUse">
<stop stop-color="#93F9B9"/>
<stop offset="1" stop-color="#1D976C"/>
</linearGradient>
<linearGradient id="paint52_linear_2936_35159" x1="-836.168" y1="532.203" x2="-836.168" y2="1932.26" gradientUnits="userSpaceOnUse">
<stop stop-color="#93F9B9"/>
<stop offset="1" stop-color="#1D976C"/>
</linearGradient>
<linearGradient id="paint53_linear_2936_35159" x1="64.2052" y1="-540.82" x2="64.2052" y2="859.239" gradientUnits="userSpaceOnUse">
<stop stop-color="#93F9B9"/>
<stop offset="1" stop-color="#1D976C"/>
</linearGradient>
<linearGradient id="paint54_linear_2936_35159" x1="-812.473" y1="503.961" x2="-812.473" y2="1904.02" gradientUnits="userSpaceOnUse">
<stop stop-color="#93F9B9"/>
<stop offset="1" stop-color="#1D976C"/>
</linearGradient>
<linearGradient id="paint55_linear_2936_35159" x1="87.8985" y1="-569.055" x2="87.8985" y2="831.005" gradientUnits="userSpaceOnUse">
<stop stop-color="#93F9B9"/>
<stop offset="1" stop-color="#1D976C"/>
</linearGradient>
<linearGradient id="paint56_linear_2936_35159" x1="-788.779" y1="475.727" x2="-788.779" y2="1875.79" gradientUnits="userSpaceOnUse">
<stop stop-color="#93F9B9"/>
<stop offset="1" stop-color="#1D976C"/>
</linearGradient>
<linearGradient id="paint57_linear_2936_35159" x1="111.592" y1="-597.297" x2="111.592" y2="802.763" gradientUnits="userSpaceOnUse">
<stop stop-color="#93F9B9"/>
<stop offset="1" stop-color="#1D976C"/>
</linearGradient>
<clipPath id="clip0_2936_35159">
<rect width="411" height="731" fill="white"/>
</clipPath>
</defs>
</svg>
